<svg id="Layer_1" data-name="Layer 1" xmlns="http://www.w3.org/2000/svg" viewBox="0 0 367.54 56.54"><defs><style>.cls-1{fill:#0c5eb1;}.cls-2{fill:#fff;}.cls-3{fill:none;}.cls-4{fill:#f4bd0f;}</style></defs><title>logo</title><polyline class="cls-1" points="141.84 4.04 187.33 4.04 187.33 50.3 141.84 50.3 141.84 4.8"/><polyline class="cls-2" points="169.35 3.44 169.35 27.8 182.02 23.06 182.02 3.5"/><polyline class="cls-2" points="147.3 12.99 147.3 36.36 156.98 32.58 156.98 8.34 147.3 12.99"/><polyline class="cls-2" points="157.78 32.87 165.35 30.4 165.35 50.49 157.78 50.49 157.78 32.87"/><rect class="cls-3" x="137.48" y="1" width="53.57" height="52.17"/><path class="cls-4" d="M390.65,93h9.89v-1.9h-6.61L400.18,47h-9.05v1.73h5.78Zm-12-46H376V88.69c0,2.55,1.25,4.66,5,4.66s4.94-2,4.94-4.49V47h-2.68V89.88A2.16,2.16,0,0,1,381,92.16a2.14,2.14,0,0,1-2.32-2.22Zm-7.39,46V73.42a4.57,4.57,0,0,0-1-3.41,7,7,0,0,0-1.85-1.46,7.29,7.29,0,0,0,2.2-1.73,3.38,3.38,0,0,0,.66-2.22V52.3c0-1.62,0-3-1.31-4.06A6.68,6.68,0,0,0,366,47.1h-4.77V93H364V69.36h1.19a3.41,3.41,0,0,1,2.44.81c.83.6,1,2,1,3.36V93Zm-2.68-41.64V63.67a6.29,6.29,0,0,1-.66,3.19,3.61,3.61,0,0,1-2.74,1.19H364V48.35h1.61a4.91,4.91,0,0,1,2,.43C368.43,49.21,368.61,50.08,368.61,51.38ZM353.36,78.24v11.7a2.12,2.12,0,0,1-2.26,2.22,2.32,2.32,0,0,1-2.44-2.27v-39c0-1.41.36-3,2.44-3s2.26,1.63,2.26,3V61H356V52.3c0-2.76-.3-5.52-4.94-5.52S346,49.54,346,52.35v36.5c0,2.49,1.37,4.49,5.12,4.49S356,91.24,356,88.69V78.24ZM334.41,52.3c0-2.76-.24-5.52-4.88-5.52s-5.12,2.76-5.12,5.58V93h2.68V69.41h4.71V93h2.62Zm-7.33,15.27V50.84c0-1.41.36-3,2.38-3,2.2.05,2.32,1.63,2.32,3V67.57ZM320.6,47H310.17v1.68H314V93h2.68V48.72h3.93ZM298.79,47h-2.38V93H299V59.56l4.77,24.69V93h2.62V47H303.8V74.83Zm-7.45,5.31c0-2.76-.24-5.52-4.88-5.52s-5.12,2.76-5.12,5.58V93H284V69.41h4.71V93h2.62ZM284,67.57V50.84c0-1.41.36-3,2.38-3,2.21.05,2.32,1.63,2.32,3V67.57Zm-7.51,20.25V79.11a15.47,15.47,0,0,0-1-5.36,35.22,35.22,0,0,0-2-4.93l-2.5-5.2a16.84,16.84,0,0,1-1.55-4.6,25.84,25.84,0,0,1-.42-5.2v-3c0-1.35.24-2.92,2.44-3,2,0,2.32,1.57,2.32,3v10h2.68v-8.5c0-2.76-.3-5.58-5.06-5.58s-5,2.76-5,5.52v2.22a23.65,23.65,0,0,0,.36,5,15.69,15.69,0,0,0,1.55,4.87L271,69.9a23.14,23.14,0,0,1,2.21,5.47,14.09,14.09,0,0,1,.65,3.84v10c0,1.35-.12,3-2.32,3-2,0-2.44-1.57-2.44-3v-11h-2.62v9.53c0,2.82.36,5.58,5.12,5.58S276.51,90.59,276.51,87.82ZM252,78.24v11.7a2.12,2.12,0,0,1-2.26,2.22,2.32,2.32,0,0,1-2.44-2.27v-39c0-1.41.36-3,2.44-3s2.26,1.63,2.26,3V61h2.68V52.3c0-2.76-.3-5.52-4.94-5.52s-5.12,2.76-5.12,5.58v36.5c0,2.49,1.37,4.49,5.12,4.49s4.94-2.11,4.94-4.66V78.24ZM232.61,47h-2.68V88.69c0,2.55,1.25,4.66,5,4.66s4.94-2,4.94-4.49V47H237.2V89.88a2.16,2.16,0,0,1-2.26,2.27,2.14,2.14,0,0,1-2.32-2.22Z" transform="translate(-32.99 -42.7)"/><path class="cls-1" d="M154.33,53.48V69h3.2V60.29a9,9,0,0,1,.22-2.64,3.58,3.58,0,0,1,.53-1.16,2.07,2.07,0,0,1,1.76-.82,1.53,1.53,0,0,1,1.73,1.38,10.94,10.94,0,0,1,.13,2.1V69h3.2V59a12,12,0,0,0-.22-3.14,3.39,3.39,0,0,0-.82-1.6,3.81,3.81,0,0,0-2.92-1.13c-1.91,0-3,.79-3.86,2.76V53.48Zm-3.7-2.07V48h-3.36V51.4Zm-3.27,2.07V69h3.2V53.48ZM134,48V69h3.2V64l2.07-2.83L142.34,69h3.45l-4.46-10.14,4-5.34h-3.17l-5,6.91V48Zm-3,9.07c-.75-2.67-2.39-4-5-4a4.86,4.86,0,0,0-5.18,4.77,4,4,0,0,0,1.35,3,8.43,8.43,0,0,0,3.52,1.66,6,6,0,0,1,2,.85,1.79,1.79,0,0,1,.75,1.51c0,1.22-.94,2-2.42,2-1.66,0-2.64-.85-3-2.67l-2.73.53a4.72,4.72,0,0,0,1.44,3,6.09,6.09,0,0,0,4.14,1.44c3.36,0,5.68-2,5.68-4.9a4,4,0,0,0-1.51-3.2A8.51,8.51,0,0,0,127,59.79a7.17,7.17,0,0,1-2.32-.94,1.7,1.7,0,0,1-.78-1.51,1.88,1.88,0,0,1,2-1.88c1.29,0,2.07.69,2.61,2.32Zm-16.1,4.33v.75c0,2.83-1.26,4.8-3,4.8-1.32,0-2.07-.85-2.07-2.32,0-2.2,1.41-3.3,4.18-3.3A6,6,0,0,1,114.9,61.42Zm-4.8-3.58c.31-1.63,1.13-2.39,2.51-2.39,1.63,0,2.29.94,2.29,3.33v.63a6.4,6.4,0,0,0-.69,0c-3.36,0-5.56.72-6.69,2.17a5.41,5.41,0,0,0-1.07,3.33,4.11,4.11,0,0,0,4.33,4.46A4.31,4.31,0,0,0,114,68.11a5.71,5.71,0,0,0,1.19-1.73,9.12,9.12,0,0,0,.22,2.58h3a16.9,16.9,0,0,1-.25-4.27V59.41c0-2.2-.09-3-.47-3.89A3.43,3.43,0,0,0,116.28,54a6.17,6.17,0,0,0-3.42-.91c-3.23,0-5.34,1.57-5.84,4.36ZM93.64,66.19V59.38h2.51A4.45,4.45,0,0,1,99,60a3.3,3.3,0,0,1,1.26,2.79c0,2.2-1.32,3.36-3.83,3.36Zm0-9.48v-6h2.54c2.39,0,3.42.88,3.42,3s-1.1,3-3.77,3ZM90.25,48V69h6.44c2.42,0,3.58-.25,4.74-1a5.5,5.5,0,0,0,2.39-4.77,5.57,5.57,0,0,0-1.44-4A4.57,4.57,0,0,0,100,57.93a4.36,4.36,0,0,0,3.14-4.58,5.23,5.23,0,0,0-2.13-4.52C100,48.17,99.2,48,96.6,48Z" transform="translate(-32.99 -42.7)"/><path class="cls-1" d="M158.06,92.62c.94.06,1.07.06,2.61.13a6.05,6.05,0,0,1,2.7.41,1.62,1.62,0,0,1,.75,1.48c0,1.41-1.26,2.13-3.67,2.13-2.61,0-3.74-.66-3.74-2.17A2.11,2.11,0,0,1,158.06,92.62Zm2.13-13.09c1.41,0,2.17,1.07,2.17,3s-.79,3-2.17,3-2.2-1.07-2.2-3S158.75,79.53,160.2,79.53Zm6.69-4.21a6,6,0,0,0-1-.06c-1.76,0-2.51.72-2.86,2.86a5.74,5.74,0,0,0-3-.69c-3.23,0-5.43,2.07-5.43,5.09a4.3,4.3,0,0,0,2,4c-1.6.82-2.29,1.76-2.29,3.11a2.75,2.75,0,0,0,1.7,2.54,2.87,2.87,0,0,0-2.26,3c0,2.54,2.2,3.89,6.22,3.89,4.58,0,7.06-1.7,7.06-4.8a3.51,3.51,0,0,0-2.48-3.67A12.56,12.56,0,0,0,161,90L159.41,90c-1.66-.09-2.26-.41-2.26-1.29,0-.63.31-1,1.16-1.35a7,7,0,0,0,2,.28c3.17,0,5.37-2.07,5.37-5a5.18,5.18,0,0,0-1.16-3.33c.22-1.19.69-1.7,1.66-1.7a3.8,3.8,0,0,1,.72.09Zm-26.46,2.48V93.28h3.2V84.62a9,9,0,0,1,.22-2.64,3.58,3.58,0,0,1,.53-1.16,2.07,2.07,0,0,1,1.76-.82,1.52,1.52,0,0,1,1.73,1.38,10.93,10.93,0,0,1,.13,2.1v9.79h3.2v-10a12,12,0,0,0-.22-3.14,3.39,3.39,0,0,0-.82-1.6,3.81,3.81,0,0,0-2.92-1.13c-1.91,0-3,.79-3.86,2.76V77.81Zm-3.7-2.07V72.31h-3.36v3.42Zm-3.27,2.07V93.28h3.2V77.81Zm-8.57,0V93.28h3.2V85.4c0-3,1.19-4.62,3.42-4.62.19,0,.31,0,.63.06V77.52a4.88,4.88,0,0,0-.6-.06,3.29,3.29,0,0,0-2.29,1,5.81,5.81,0,0,0-1.54,2.76V77.81ZM119,83.87h-5.43c.16-2.67,1.13-4.08,2.73-4.08s2.7,1.41,2.7,4ZM122.21,86c0-3.27-.22-4.18-1.13-5.9a5.14,5.14,0,0,0-4.71-2.7c-3.83,0-6.15,3.14-6.15,8.35,0,5,2.23,7.88,6.12,7.88,3.11,0,5-1.6,5.75-4.9l-2.89-.41c-.5,2.1-1.26,2.89-2.73,2.89a2.81,2.81,0,0,1-2.76-2.42,10.79,10.79,0,0,1-.22-2.79Zm-17.14-2.17H99.64c.16-2.67,1.13-4.08,2.73-4.08s2.7,1.41,2.7,4ZM108.31,86c0-3.27-.22-4.18-1.13-5.9a5.14,5.14,0,0,0-4.71-2.7c-3.83,0-6.15,3.14-6.15,8.35,0,5,2.23,7.88,6.12,7.88,3.11,0,5-1.6,5.75-4.9l-2.89-.41c-.5,2.1-1.26,2.89-2.73,2.89a2.81,2.81,0,0,1-2.76-2.42A10.81,10.81,0,0,1,99.58,86ZM82.63,77.81V93.28h3.2V84.62A9,9,0,0,1,86,82a3.59,3.59,0,0,1,.53-1.16A2.07,2.07,0,0,1,88.34,80a1.53,1.53,0,0,1,1.73,1.38,10.94,10.94,0,0,1,.13,2.1v9.79h3.2v-10a12,12,0,0,0-.22-3.14,3.39,3.39,0,0,0-.82-1.6,3.81,3.81,0,0,0-2.92-1.13c-1.92,0-3,.79-3.86,2.76V77.81Zm-3.7-2.07V72.31H75.56v3.42Zm-3.26,2.07V93.28h3.2V77.81ZM65,92.62c.94.06,1.07.06,2.61.13a6.06,6.06,0,0,1,2.7.41A1.62,1.62,0,0,1,71,94.63c0,1.41-1.26,2.13-3.67,2.13-2.61,0-3.74-.66-3.74-2.17A2.11,2.11,0,0,1,65,92.62Zm2.13-13.09c1.41,0,2.17,1.07,2.17,3s-.78,3-2.17,3-2.2-1.07-2.2-3S65.64,79.53,67.09,79.53Zm6.69-4.21a6,6,0,0,0-1-.06c-1.76,0-2.51.72-2.86,2.86a5.74,5.74,0,0,0-3-.69c-3.23,0-5.43,2.07-5.43,5.09a4.3,4.3,0,0,0,2,4c-1.6.82-2.29,1.76-2.29,3.11A2.75,2.75,0,0,0,63,92.12a2.87,2.87,0,0,0-2.26,3c0,2.54,2.2,3.89,6.22,3.89,4.58,0,7.06-1.7,7.06-4.8a3.51,3.51,0,0,0-2.48-3.67A12.56,12.56,0,0,0,67.93,90L66.3,90c-1.66-.09-2.26-.41-2.26-1.29,0-.63.31-1,1.16-1.35a7,7,0,0,0,2,.28c3.17,0,5.37-2.07,5.37-5a5.18,5.18,0,0,0-1.16-3.33c.22-1.19.69-1.7,1.66-1.7a3.79,3.79,0,0,1,.72.09ZM47.31,77.81V93.28h3.2V84.62A9,9,0,0,1,50.73,82a3.59,3.59,0,0,1,.53-1.16A2.07,2.07,0,0,1,53,80a1.53,1.53,0,0,1,1.73,1.38,10.93,10.93,0,0,1,.13,2.1v9.79h3.2v-10a12,12,0,0,0-.22-3.14,3.39,3.39,0,0,0-.82-1.6,3.81,3.81,0,0,0-2.92-1.13c-1.92,0-3,.79-3.86,2.76V77.81ZM33,72.34V93.28H45.11V90.46H36.45V83.9h6.69V81.13H36.45v-6H45v-2.8Z" transform="translate(-32.99 -42.7)"/><rect class="cls-3" x="0.01" y="0.12" width="367.54" height="56.3"/></svg>